<svg xmlns="http://www.w3.org/2000/svg" version="1.1" xmlns:xlink="http://www.w3.org/1999/xlink" xmlns:svgjs="http://svgjs.dev/svgjs" width="1500" height="1500" viewBox="0 0 1500 1500"><rect width="1500" height="1500" fill="#581381"></rect><g transform="matrix(0.6666666666666666,0,0,0.6666666666666666,249.39393939393938,620.1881717519217)"><svg viewBox="0 0 396 102" data-background-color="#581381" preserveAspectRatio="xMidYMid meet" height="386" width="1500" xmlns="http://www.w3.org/2000/svg" xmlns:xlink="http://www.w3.org/1999/xlink"><g id="tight-bounds" transform="matrix(1,0,0,1,0.2400000000000091,0.4539111967771703)"><svg viewBox="0 0 395.52 101.09217760644565" height="101.09217760644565" width="395.52"><g><svg viewBox="0 0 397.49759999999986 101.59763849447785" height="101.09217760644565" width="395.52"><g><rect width="397.49759999999986" height="3.5757178219115042" x="0" y="49.010960336283176" fill="#ffffff" opacity="1" stroke-width="0" stroke="transparent" fill-opacity="1" class="rect-yte-0" data-fill-palette-color="primary" rx="1%" id="yte-0" data-palette-color="#ffffff"></rect></g><g transform="matrix(1,0,0,1,0.9887999999999693,61.94719601660176)"><svg viewBox="0 0 395.5199999999999 39.6504424778761" height="39.6504424778761" width="395.5199999999999"><g id="textblocktransform"><svg viewBox="0 0 395.5199999999999 39.6504424778761" height="39.6504424778761" width="395.5199999999999" id="textblock"><g><svg viewBox="0 0 395.5199999999999 39.6504424778761" height="39.6504424778761" width="395.5199999999999"><g transform="matrix(1,0,0,1,0,0)"><svg width="395.5199999999999" viewBox="4.25 -35.9 359.53 36.25" height="39.6504424778761" data-palette-color="#ffffff"><g class="wordmark-text-0" data-fill-palette-color="primary" id="text-0"><path d="M8.75 0L4.25 0 4.25-35.5 8.75-35.5 8.75 0ZM20.15-25.05L16.35-25.05 16.35-35.9 20.15-35.9 20.15-25.05ZM62.95 0L58.45 0 58.45-27.1 46.75-6.25 44-6.25 32.25-27.1 32.25 0 27.75 0 27.75-35.5 32.5-35.5 45.34-12.45 58.25-35.5 62.95-35.5 62.95 0Z" fill="#ffffff" data-fill-palette-color="primary"></path><path d="M107.1-9.15L107.1-9.15Q107.1-6.4 105.7-4.35 104.3-2.3 101.92-1.15 99.55 0 96.7 0L96.7 0 79.85 0 79.85-35.5 97.5-35.5Q100-35.5 101.82-34.18 103.65-32.85 104.62-30.78 105.6-28.7 105.6-26.45L105.6-26.45Q105.6-23.85 104.27-21.58 102.95-19.3 100.5-18.2L100.5-18.2Q103.55-17.3 105.32-14.88 107.1-12.45 107.1-9.15ZM102.55-9.95L102.55-9.95Q102.55-11.6 101.82-13 101.1-14.4 99.87-15.25 98.65-16.1 97.05-16.1L97.05-16.1 84.35-16.1 84.35-3.9 96.7-3.9Q98.35-3.9 99.67-4.75 101-5.6 101.77-6.98 102.55-8.35 102.55-9.95ZM95.95-31.6L84.35-31.6 84.35-19.75 95.65-19.75Q97.25-19.75 98.47-20.55 99.7-21.35 100.42-22.7 101.15-24.05 101.15-25.65L101.15-25.65Q101.15-27.35 100.47-28.68 99.8-30 98.62-30.8 97.45-31.6 95.95-31.6L95.95-31.6ZM117.9-4L137.5-4 137.5 0 113.4 0 113.4-35.5 137.05-35.5 137.05-31.5 117.9-31.5 117.9-20 134.55-20 134.55-16.25 117.9-16.25 117.9-4ZM166.59-31.7L164.49-28.05Q163.89-28.75 162.89-29.4 161.89-30.05 160.64-30.58 159.39-31.1 157.92-31.43 156.44-31.75 154.84-31.75L154.84-31.75Q150.74-31.75 148.79-30.2 146.84-28.65 146.84-25.95L146.84-25.95Q146.84-24.05 147.84-22.95 148.84-21.85 150.92-21.15 152.99-20.45 156.19-19.7L156.19-19.7Q159.89-18.9 162.59-17.75 165.29-16.6 166.74-14.68 168.19-12.75 168.19-9.55L168.19-9.55Q168.19-7 167.22-5.13 166.24-3.25 164.49-2.02 162.74-0.8 160.39-0.23 158.04 0.35 155.29 0.35L155.29 0.35Q152.59 0.35 150.02-0.23 147.44-0.8 145.14-1.9 142.84-3 140.84-4.65L140.84-4.65 142.99-8.45Q143.79-7.6 145.07-6.78 146.34-5.95 147.97-5.25 149.59-4.55 151.49-4.13 153.39-3.7 155.39-3.7L155.39-3.7Q159.19-3.7 161.29-5.08 163.39-6.45 163.39-9.1L163.39-9.1Q163.39-11.1 162.22-12.3 161.04-13.5 158.74-14.3 156.44-15.1 153.14-15.9L153.14-15.9Q149.54-16.8 147.09-17.88 144.64-18.95 143.42-20.7 142.19-22.45 142.19-25.25L142.19-25.25Q142.19-28.65 143.84-31 145.49-33.35 148.39-34.55 151.29-35.75 154.94-35.75L154.94-35.75Q157.34-35.75 159.42-35.25 161.49-34.75 163.29-33.85 165.09-32.95 166.59-31.7L166.59-31.7ZM178.59 0L174.09 0 174.09-35.5 178.59-35.5 178.59 0ZM199.39 0L187.09 0 187.09-35.5 199.39-35.5Q205.09-35.5 208.91-33.13 212.74-30.75 214.64-26.73 216.54-22.7 216.54-17.8L216.54-17.8Q216.54-12.4 214.44-8.4 212.34-4.4 208.49-2.2 204.64 0 199.39 0L199.39 0ZM211.99-17.8L211.99-17.8Q211.99-21.8 210.51-24.9 209.04-28 206.24-29.75 203.44-31.5 199.39-31.5L199.39-31.5 191.59-31.5 191.59-4 199.39-4Q203.49-4 206.29-5.83 209.09-7.65 210.54-10.78 211.99-13.9 211.99-17.8ZM227.39-4L246.99-4 246.99 0 222.89 0 222.89-35.5 246.54-35.5 246.54-31.5 227.39-31.5 227.39-20 244.04-20 244.04-16.25 227.39-16.25 227.39-4Z" fill="#f5a1e8" data-fill-palette-color="secondary"></path><path d="M260.29-35.5L265.24-35.5 275.99-17 286.84-35.5 291.74-35.5 278.24-12.95 278.24 0 273.74 0 273.74-13.05 260.29-35.5ZM311.04 0.25L311.04 0.25Q307.29 0.25 304.24-1.25 301.19-2.75 298.96-5.33 296.74-7.9 295.54-11.13 294.34-14.35 294.34-17.75L294.34-17.75Q294.34-21.3 295.61-24.53 296.89-27.75 299.16-30.28 301.44-32.8 304.49-34.27 307.54-35.75 311.14-35.75L311.14-35.75Q314.89-35.75 317.94-34.2 320.99-32.65 323.19-30.05 325.39-27.45 326.58-24.25 327.79-21.05 327.79-17.7L327.79-17.7Q327.79-14.15 326.54-10.93 325.29-7.7 323.01-5.18 320.74-2.65 317.69-1.2 314.64 0.25 311.04 0.25ZM298.89-17.75L298.89-17.75Q298.89-15.05 299.76-12.53 300.64-10 302.24-8.05 303.84-6.1 306.09-4.95 308.34-3.8 311.08-3.8L311.08-3.8Q313.94-3.8 316.19-5 318.44-6.2 320.01-8.2 321.58-10.2 322.41-12.7 323.24-15.2 323.24-17.75L323.24-17.75Q323.24-20.45 322.36-22.95 321.49-25.45 319.86-27.43 318.24-29.4 316.01-30.53 313.79-31.65 311.08-31.65L311.08-31.65Q308.24-31.65 305.99-30.48 303.74-29.3 302.16-27.3 300.59-25.3 299.74-22.83 298.89-20.35 298.89-17.75ZM348.68 0.25L348.68 0.25Q344.43 0.25 341.53-1.23 338.63-2.7 336.88-5.23 335.13-7.75 334.33-10.95 333.53-14.15 333.53-17.55L333.53-17.55 333.53-35.5 338.03-35.5 338.03-17.55Q338.03-14.95 338.56-12.48 339.08-10 340.28-8.05 341.48-6.1 343.53-4.95 345.58-3.8 348.63-3.8L348.63-3.8Q351.73-3.8 353.78-4.98 355.83-6.15 357.03-8.13 358.23-10.1 358.76-12.55 359.28-15 359.28-17.55L359.28-17.55 359.28-35.5 363.78-35.5 363.78-17.55Q363.78-13.95 362.96-10.73 362.13-7.5 360.33-5.05 358.53-2.6 355.66-1.18 352.78 0.25 348.68 0.25Z" fill="#fff2ff" data-fill-palette-color="accent"></path></g></svg></g></svg></g></svg></g></svg></g><g transform="matrix(1,0,0,1,187.24647491297674,0)"><svg viewBox="0 0 23.00465017404636 39.6504424778761" height="39.6504424778761" width="23.00465017404636"><g><svg xmlns="http://www.w3.org/2000/svg" xmlns:xlink="http://www.w3.org/1999/xlink" version="1.1" x="0" y="0" viewBox="21.679106830508616 1 56.85827385947762 98" enable-background="new 0 0 100 100" xml:space="preserve" height="39.6504424778761" width="23.00465017404636" class="icon-icon-0" data-fill-palette-color="accent" id="icon-0"><g fill="#fff2ff" data-fill-palette-color="accent"><path fill-rule="evenodd" clip-rule="evenodd" d="M30.545 28.822C29.38 36.039 30.875 43.672 37.045 47.863 30.758 19.81 45.756 8.664 59.646 1 43.466 24.046 76.542 24.644 78.423 51.13 80.028 73.71 64.507 91.317 46.639 99 46.845 76.175 24.089 73.067 21.801 54.397 20.905 47.094 25.062 33.766 30.545 28.822" fill="#fff2ff" data-fill-palette-color="accent"></path></g></svg></g></svg></g><g></g></svg></g><defs></defs></svg><rect width="395.52" height="101.09217760644565" fill="none" stroke="none" visibility="hidden"></rect></g></svg></g></svg>